<?xml version="1.0" encoding="utf-8"?><!-- Generator: Adobe Illustrator 22.1.0, SVG Export Plug-In . SVG Version: 6.00 Build 0)  --><svg version="1.1" xmlns="http://www.w3.org/2000/svg" xmlns:xlink="http://www.w3.org/1999/xlink" x="0px" y="0px"	 viewBox="0 0 173.2 200" style="enable-background:new 0 0 173.2 200;" xml:space="preserve"><style type="text/css">	.st0{fill:#2290A0;}	.st1{display:none;}	.st2{display:inline;fill:#F7F9F9;}	.st3{display:inline;fill:#F7F9F9;stroke:#2290A0;stroke-width:4;stroke-miterlimit:10;}	.st4{display:inline;fill:none;stroke:#2290A0;stroke-width:4;stroke-miterlimit:10;}	.st5{fill:none;stroke:#F7F9F9;stroke-width:8;stroke-linecap:round;stroke-miterlimit:10;}	.st6{fill:#F7F9F9;stroke:#F7F9F9;stroke-width:8;stroke-miterlimit:10;}</style><g id="Hex_Base">	<g>		<polygon class="st0" points="173.2,50 86.6,0 0,50 0,150 86.6,200 173.2,150 		"/>	</g></g><g id="Layer_2" class="st1">	<path class="st2" d="M66.4,123.8l-5.3,19.1c-1.6,5.7,0.9,11.8,5.8,14.1l4.8,2.2c6.6,3.1,14,3.4,20.8,0.9l2.3-0.9		c5-1.8,7.9-7.9,6.6-13.7l-4.5-20.1"/>	<ellipse transform="matrix(0.3263 -0.9453 0.9453 0.3263 -25.2137 141.4185)" class="st3" cx="86.6" cy="88.4" rx="49" ry="39.5"/>	<path class="st4" d="M54.8,55.8c13,8.5,23.1,9.7,30.3,8.9c7.8-0.8,15.5-4.3,21.1,0c0.7,0.6,2.7,2.3,4.3,7.4		c2.7,8.8,2.1,20.6-3.9,30.8c-9.9,17-28.9,19.9-31,20.2c-17.9,2.5-32.6-10.4-35-12.3"/></g><g id="Helmet_Icon">	<path class="st5" d="M98,132.2c1.4,4.1,3.1,8.5,5.4,13.3c1.8,3.8,3.7,7.2,5.5,10.3"/>	<path class="st5" d="M70.8,135.9c-0.6,3-1.4,6.4-2.5,9.9c-1.4,4.5-3,8.4-4.5,11.8"/>	<path class="st5" d="M63.8,157.6c2.6,2,10.3,7.6,21.7,8c13,0.5,21.1-8.1,23.5-9.9"/>	<path class="st6" d="M108.8,115.6c-3.7,4.7-13.2,22-31.2,20.5c-7.5-0.6-12-3.7-14.8-6.9c-2.5-2.9-3.8-5.8-4.6-7		c-14.2-19.2-8.2-44.5-6-51c1.4-4.1,4.2-11.4,8.7-18.2c5.3-7.9,12.9-15.3,23.5-16.7c18.2-2.4,32.8,11.6,34.8,27.6		C121.4,82.2,118.3,103.7,108.8,115.6z"/>	<path class="st0" d="M109.2,106.1c-7.8,12.4-12.5,17.7-16.1,19.2c-7.6,3.2-16-1-23-1c-4,0-10.1,1.2-11,0c-14.2-19.2-12-38-7-54		c1.3-4.2,4.5-12.2,9-19c2.9,0.9,8,2.5,11.7,3c14.7,1.8,21.1-3.5,30,1.1c8.9,4.6,9.6,14.8,10.3,16.9		C118.1,87.9,111.8,102,109.2,106.1z"/></g></svg>