<?xml version="1.0" encoding="utf-8"?><!-- Generator: Adobe Illustrator 22.1.0, SVG Export Plug-In . SVG Version: 6.00 Build 0)  --><svg version="1.1" xmlns="http://www.w3.org/2000/svg" xmlns:xlink="http://www.w3.org/1999/xlink" x="0px" y="0px"	 viewBox="0 0 173.2 200" style="enable-background:new 0 0 173.2 200;" xml:space="preserve"><style type="text/css">	.st0{fill:#2290A0;}	.st1{fill:#F7F9F9;}	.st2{display:none;fill:none;}	.st3{fill:none;stroke:#F7F9F9;stroke-width:2;stroke-miterlimit:10;}	.st4{fill:none;stroke:#F7F9F9;stroke-width:3;stroke-linecap:round;stroke-linejoin:round;stroke-miterlimit:10;}	.st5{fill:none;stroke:#F7F9F9;stroke-width:2;stroke-linecap:round;stroke-linejoin:round;stroke-miterlimit:10;}	.st6{fill:none;stroke:#F7F9F9;stroke-width:2.5;stroke-linecap:round;stroke-linejoin:round;stroke-miterlimit:10;}</style><g id="Hex_Base">	<g>		<polygon class="st0" points="173.2,50 86.6,0 0,50 0,150 86.6,200 173.2,150 		"/>	</g></g><g id="Contact_Icon">	<g>		<path class="st1" d="M112,126.4c-13.6,0-29.7-8.1-42-21.2C50.6,84.5,45.5,57.5,58.8,45.1c0.3-0.3,0.6-0.5,0.8-0.7l69.7,75.8			c0,0-0.1,0.1-0.1,0.1C124.9,124.3,118.9,126.4,112,126.4z"/>		<path class="st1" d="M59.5,47.2l67,72.8c-3.8,2.9-8.8,4.5-14.5,4.5c-13.1,0-28.6-7.9-40.5-20.6C62.2,94,56,82.4,54,71.3			C52.3,61.2,54.2,52.7,59.5,47.2 M59.8,41.7c-0.9,0.6-1.7,1.3-2.4,2C43.3,56.9,48.3,85,68.5,106.6c13.2,14.1,29.7,21.9,43.4,21.9			c7.3,0,13.8-2.2,18.6-6.7c0.5-0.5,1-1,1.5-1.5L59.8,41.7L59.8,41.7z"/>	</g>	<g>		<path class="st0" d="M125.4,120.7c-10.5,0-27.7-10.9-42.8-27C61.4,71.2,54.1,49.8,60.4,43.8c1.3-1.2,3.1-1.8,5.5-1.8			c10.5,0,27.7,10.9,42.8,27c21.1,22.5,28.4,43.9,22.1,49.9C129.6,120.1,127.8,120.7,125.4,120.7z"/>		<path class="st1" d="M65.9,40v4c8,0,24.4,8.3,41.4,26.4c21,22.4,27.1,42.5,22.2,47c-0.9,0.8-2.3,1.3-4.1,1.3			c-8,0-24.4-8.3-41.4-26.4C63,70,56.9,49.8,61.8,45.3c0.9-0.8,2.3-1.3,4.1-1.3L65.9,40 M65.9,40c-2.8,0-5.2,0.8-6.9,2.3			c-8.1,7.6,1.8,31.2,22,52.7c16,17,33.6,27.7,44.3,27.7c2.8,0,5.2-0.8,6.9-2.3c8.1-7.6-1.8-31.2-22-52.7C94.3,50.7,76.6,40,65.9,40			L65.9,40z"/>	</g>	<polyline class="st2" points="143.8,132.9 132.1,120.2 59.8,41.7 56.9,38.4 	"/>	<line class="st3" x1="82.1" y1="67.4" x2="121.7" y2="58.8"/>	<line class="st3" x1="111.3" y1="97.2" x2="121.7" y2="58.8"/>	<line class="st3" x1="89" y1="90.2" x2="121.7" y2="58.8"/>	<path class="st1" d="M128.8,59.8l-6.1,5.7c-1.1,1.1-2.9,1-4-0.1l-3.9-4.1c-1.1-1.1-1-2.9,0.1-4l6.1-5.7c1.1-1.1,2.9-1,4,0.1		l3.9,4.1C129.9,56.9,129.9,58.7,128.8,59.8z"/>	<line class="st4" x1="71.2" y1="106.4" x2="56.3" y2="158.1"/>	<line class="st4" x1="88.7" y1="119.7" x2="97.3" y2="158.4"/>	<line class="st3" x1="72.2" y1="108.4" x2="92.3" y2="133.6"/>	<line class="st5" x1="56.3" y1="158.1" x2="92.3" y2="133.6"/>	<line class="st6" x1="80.5" y1="115" x2="76" y2="152.2"/>	<line class="st5" x1="76" y1="152.2" x2="64.2" y2="131.7"/>	<line class="st3" x1="80.6" y1="117" x2="64.2" y2="131.7"/>	<line class="st5" x1="97.3" y1="158.4" x2="78.3" y2="133.1"/>	<line class="st3" x1="88.7" y1="119.7" x2="78.3" y2="133.1"/></g></svg>