<?xml version="1.0" encoding="utf-8"?><!-- Generator: Adobe Illustrator 22.1.0, SVG Export Plug-In . SVG Version: 6.00 Build 0)  --><svg version="1.1" xmlns="http://www.w3.org/2000/svg" xmlns:xlink="http://www.w3.org/1999/xlink" x="0px" y="0px"	 viewBox="0 0 173.2 200" style="enable-background:new 0 0 173.2 200;" xml:space="preserve"><style type="text/css">	.st0{fill:#2290A0;}	.st1{fill:#F7F9F9;stroke:#F7F9F9;stroke-width:4;stroke-miterlimit:10;}	.st2{fill:#2290A0;stroke:#F7F9F9;stroke-width:2;stroke-miterlimit:10;}	.st3{fill:none;stroke:#F7F9F9;stroke-width:2;stroke-miterlimit:10;}</style><g id="Hex_Base">	<g>		<polygon class="st0" points="173.2,50 86.6,0 0,50 0,150 86.6,200 173.2,150 		"/>	</g></g><g id="Menu_icon">	<g>		<circle class="st1" cx="43.3" cy="125" r="20"/>		<path class="st2" d="M149.9,125c0,11-9,20-20,20c-5.1,0-9.8-1.9-13.3-5.1c-4.1-3.7-6.7-9-6.7-14.9c0-11,9-20,20-20			c2.2,0,4.3,0.3,6.3,1C144.2,108.6,149.9,116.1,149.9,125z"/>		<path class="st2" d="M106.9,50c0,1.4-0.2,2.8-0.4,4.1c-1.9,9.1-10,15.9-19.6,15.9c-9.7,0-17.8-6.9-19.6-16.1			c-0.3-1.3-0.4-2.5-0.4-3.9c0-11,9-20,20-20C98,30,106.9,39,106.9,50z"/>		<path class="st3" d="M136.2,106c-2-0.7-4.1-1-6.3-1c-11,0-20,9-20,20c0,6,2.6,11.3,6.7,14.9c-1.6,1.2-3.3,2.3-5.1,3.4			c-23.9,13.8-54.5,5.6-68.3-18.3c-13.8-23.9-5.6-54.5,18.3-68.3c1.9-1.1,3.8-2,5.7-2.8C69.1,63.1,77.2,70,86.9,70			c9.6,0,17.7-6.8,19.6-15.9c9.5,4.1,17.8,11.2,23.4,20.9C135.5,84.8,137.5,95.6,136.2,106z"/>	</g></g></svg>