<?xml version="1.0" encoding="utf-8"?><!-- Generator: Adobe Illustrator 22.1.0, SVG Export Plug-In . SVG Version: 6.00 Build 0)  --><svg version="1.1" xmlns="http://www.w3.org/2000/svg" xmlns:xlink="http://www.w3.org/1999/xlink" x="0px" y="0px"	 viewBox="0 0 173.2 200" style="enable-background:new 0 0 173.2 200;" xml:space="preserve"><style type="text/css">	.st0{fill:#2290A0;}	.st1{fill:#F7F9F9;}	.st2{fill:#F7F9F9;stroke:#F7F9F9;stroke-width:2;stroke-linecap:round;stroke-linejoin:round;stroke-miterlimit:10;}	.st3{fill:none;stroke:#F7F9F9;stroke-width:4;stroke-miterlimit:10;}</style><g id="Hex_Base">	<g>		<polygon class="st0" points="173.2,50 86.6,0 0,50 0,150 86.6,200 173.2,150 		"/>	</g></g><g id="Projects_Icon">	<g>		<polygon class="st0" points="34.3,135.9 34.3,105.6 60.6,90.4 86.9,105.6 86.9,135.9 60.6,151.1 		"/>		<path class="st1" d="M60.6,92.7l24.3,14v28l-24.3,14l-24.3-14v-28L60.6,92.7 M60.6,88.1l-28.3,16.3v32.7l28.3,16.3l28.3-16.3			v-32.7L60.6,88.1L60.6,88.1z"/>	</g>	<g>		<polygon class="st0" points="86.3,135.9 86.3,105.6 112.6,90.4 138.9,105.6 138.9,135.9 112.6,151.1 		"/>		<path class="st1" d="M112.6,92.7l24.3,14v28l-24.3,14l-24.3-14v-28L112.6,92.7 M112.6,88.1l-28.3,16.3v32.7l28.3,16.3l28.3-16.3			v-32.7L112.6,88.1L112.6,88.1z"/>	</g>	<g>		<polygon class="st0" points="60.3,91.2 60.3,60.9 86.6,45.7 112.9,60.9 112.9,91.2 86.6,106.4 		"/>		<path class="st1" d="M86.6,48l24.3,14v28l-24.3,14l-24.3-14V62L86.6,48 M86.6,43.4L58.3,59.7v32.7l28.3,16.3l28.3-16.3V59.7			L86.6,43.4L86.6,43.4z"/>	</g>	<polygon class="st2" points="60.6,150 60.6,120.6 34.6,104.7 34.6,135.3 	"/>	<polygon class="st2" points="86.6,104.7 86.6,76.5 60.6,61.7 60.6,91.2 	"/>	<line class="st3" x1="112.6" y1="60.6" x2="86.6" y2="76.5"/>	<polyline class="st3" points="138.6,105.9 112.6,120.6 86.6,105.9 60.6,120.6 	"/>	<line class="st3" x1="112.6" y1="151.1" x2="112.6" y2="120.6"/>	<polygon class="st2" points="112.6,150 112.6,120.6 86.6,107 86.6,135.3 	"/></g></svg>