<?xml version="1.0" encoding="utf-8"?><!-- Generator: Adobe Illustrator 22.1.0, SVG Export Plug-In . SVG Version: 6.00 Build 0)  --><svg version="1.1" xmlns="http://www.w3.org/2000/svg" xmlns:xlink="http://www.w3.org/1999/xlink" x="0px" y="0px"	 viewBox="0 0 173.2 200" style="enable-background:new 0 0 173.2 200;" xml:space="preserve"><style type="text/css">	.st0{fill:#2290A0;}	.st1{fill:#2290A0;stroke:#F7F9F9;stroke-width:4;stroke-miterlimit:10;}	.st2{fill:#F7F9F9;stroke:#F7F9F9;stroke-width:4;stroke-linejoin:round;stroke-miterlimit:10;}	.st3{display:none;fill:none;}	.st4{fill:#2290A0;stroke:#F7F9F9;stroke-width:2;stroke-miterlimit:10;}	.st5{fill:#F7F9F9;stroke:#F7F9F9;stroke-width:2;stroke-linejoin:round;stroke-miterlimit:10;}	.st6{fill:#2290A0;stroke:#F7F9F9;stroke-miterlimit:10;}	.st7{fill:#F7F9F9;stroke:#F7F9F9;stroke-linejoin:round;stroke-miterlimit:10;}</style><g id="Hex_Base">	<g>		<polygon class="st0" points="173.2,50 86.6,0 0,50 0,150 86.6,200 173.2,150 		"/>	</g></g><g id="Vision_Icon">	<g id="Planet">		<circle class="st1" cx="101.6" cy="128.4" r="35"/>		<path class="st2" d="M136.6,128.4c0,16.9-11.9,31-27.8,34.3c9.2-8.5,15-20.7,15-34.3s-5.8-25.7-15-34.3			C124.7,97.4,136.6,111.5,136.6,128.4z"/>		<path class="st3" d="M113.6,148c2.1,0,4.2-0.2,6.1-0.6c-7.1,6.6-16.7,10.6-27.1,10.6c-22.1,0-40-17.9-40-40c0-22.1,17.9-40,40-40			c10.5,0,20,4,27.1,10.6c-2-0.4-4-0.6-6.1-0.6c-16.6,0-30,13.4-30,30S97,148,113.6,148z"/>	</g>	<g id="Large_Moon">		<circle class="st4" cx="41.6" cy="73.4" r="12.5"/>		<path class="st5" d="M54.1,73.4c0,6-4.3,11.1-9.9,12.2c3.3-3,5.4-7.4,5.4-12.2s-2.1-9.2-5.4-12.2C49.8,62.3,54.1,67.4,54.1,73.4z"			/>	</g>	<g id="Small_Moon">		<circle class="st6" cx="96.6" cy="43.4" r="7.5"/>		<path class="st7" d="M104.1,43.4c0,3.6-2.6,6.6-6,7.3c2-1.8,3.2-4.4,3.2-7.3s-1.2-5.5-3.2-7.3C101.5,36.8,104.1,39.8,104.1,43.4z"			/>	</g></g></svg>